#!OML:ASF G:\JayActor3\Patient Classification 1\Patient 1\Session 5\male.ASF
:FULLY-SPECIFIED
:DEGREES
592
root 18.5637 16.234 -4.99924 214.585 86.8205 193.686
lowerback 25.594 -1.38015 3.25921
upperback 6.43343 -0.429188 -0.0421167
thorax -7.10358 -0.0288016 -1.81185
lowerneck 4.12998 -1.26811 0.365082
upperneck -10.8716 -1.29843 2.69468
head -4.29358 -0.743408 0.901678
rclavicle 1.97791e-014 1.52567e-014
rhumerus -34.228 -0.64812 -86.9237
rradius 30.7903
rwrist -1.93801
rhand -21.0553 -8.57237
rfingers 7.12502
rthumb 5.32097 -38.4856
lclavicle 1.97791e-014 1.52567e-014
lhumerus -36.2204 -0.259884 86.6694
lradius 27.1134
lwrist 22.5753
lhand -17.4698 10.6025
lfingers 7.12502
lthumb 8.78203 40.3998
rfemur -41.3803 3.901 27.2652
rtibia 52.7646
rfoot -26.7563 -7.85098
rtoes 11.8041
lfemur -55.8584 4.25397 -21.4764
ltibia 51.7095
lfoot -18.1003 -0.105115
ltoes -15.4205
593
root 18.7091 16.2311 -5.00242 217.297 86.8453 196.525
lowerback 25.6135 -1.34751 3.31438
upperback 6.46264 -0.368125 -0.0134289
thorax -7.07773 0.00143036 -1.8309
lowerneck 4.12012 -1.26656 0.373116
upperneck -10.8399 -1.29731 2.69151
head -4.28023 -0.742943 0.898604
rclavicle -2.59911e-014 -5.0044e-014
rhumerus -34.2213 -0.706585 -86.8614
rradius 30.7423
rwrist -1.92121
rhand -21.0369 -8.59025
rfingers 7.12502
rthumb 5.33869 -38.503
lclavicle -2.59911e-014 -5.0044e-014
lhumerus -36.2615 -0.164783 86.5869
lradius 27.0345
lwrist 22.4665
lhand -17.5018 10.5577
lfingers 7.12502
lthumb 8.75112 40.3563
rfemur -40.5083 3.6994 27.5607
rtibia 52.5064
rfoot -27.0924 -7.73788
rtoes 11.6649
lfemur -56.2722 4.24796 -21.7986
ltibia 49.8308
lfoot -18.117 0.427673
ltoes -15.3189
594
root 18.8552 16.2264 -5.00588 220.222 86.8637 199.572
lowerback 25.6274 -1.31351 3.37232
upperback 6.48981 -0.305149 0.015086
thorax -7.05117 0.0324223 -1.8523
lowerneck 4.10919 -1.26746 0.382789
upperneck -10.8158 -1.29827 2.69537
head -4.26938 -0.743878 0.897789
rclavicle -2.60905e-014 -4.60683e-014
rhumerus -34.223 -0.750094 -86.8195
rradius 30.6573
rwrist -1.79593
rhand -21.2011 -8.49564
rfingers 7.12502
rthumb 5.18018 -38.4123
lclavicle -2.60905e-014 -4.60683e-014
lhumerus -36.2854 -0.0920098 86.5154
lradius 26.9401
lwrist 22.3787
lhand -17.5155 10.496
lfingers 7.12502
lthumb 8.73793 40.2951
rfemur -39.6253 3.50588 27.8598
rtibia 52.2262
rfoot -27.4359 -7.64269
rtoes 11.5161
lfemur -56.6252 4.25696 -22.1255
ltibia 47.8694
lfoot -18.1503 0.94715
ltoes -15.1735
595
root 19.0022 16.22 -5.00958 223.31 86.875 202.775
lowerback 25.6352 -1.2787 3.43227
upperback 6.51368 -0.241437 0.0418358
thorax -7.02513 0.0635387 -1.87698
lowerneck 4.10085 -1.26992 0.393591
upperneck -10.8034 -1.30009 2.70511
head -4.26325 -0.745561 0.898975
rclavicle -7.25564e-015 4.37326e-015
rhumerus -34.2353 -0.781196 -86.7985
rradius 30.5481
rwrist -1.58212
rhand -21.5071 -8.32772
rfingers 7.12502
rthumb 4.8847 -38.2514
lclavicle -7.25564e-015 4.37326e-015
lhumerus -36.2963 -0.0271377 86.4471
lradius 26.8379
lwrist 22.2999
lhand -17.5239 10.4496
lfingers 7.12502
lthumb 8.72976 40.2491
rfemur -38.7353 3.32824 28.1576
rtibia 51.9306
rfoot -27.7896 -7.57243
rtoes 11.3768
lfemur -56.9167 4.28493 -22.4625
ltibia 45.8325
lfoot -18.2134 1.45675
ltoes -15.0313
596
root 19.1502 16.2116 -5.01351 226.544 86.879 206.117
lowerback 25.6379 -1.24107 3.49679
upperback 6.53413 -0.17389 0.0651565
thorax -7 0.0962173 -1.90919
lowerneck 4.09901 -1.27544 0.409129
upperneck -10.8094 -1.30439 2.71894
head -4.26501 -0.748907 0.901131
rclavicle 7.33018e-015 9.93923e-015
rhumerus -34.2554 -0.823542 -86.7885
rradius 30.4407
rwrist -1.3591
rhand -21.8238 -8.1544
rfingers 7.12502
rthumb 4.5789 -38.0849
lclavicle 7.33018e-015 9.93923e-015
lhumerus -36.303 0.0251713 86.3806
lradius 26.7444
lwrist 22.2342
lhand -17.5181 10.4102
lfingers 7.12502
lthumb 8.7354 40.2095
rfemur -37.8412 3.17709 28.4511
rtibia 51.6246
rfoot -28.1516 -7.54
rtoes 11.2287
lfemur -57.1473 4.33878 -22.818
ltibia 43.7291
lfoot -18.2867 1.98219
ltoes -15.0446
597
root 19.2991 16.2016 -5.01788 229.893 86.8762 209.566
lowerback 25.6362 -1.20249 3.56208
upperback 6.55188 -0.105596 0.0870265
thorax -6.9755 0.129077 -1.94362
lowerneck 4.09696 -1.27846 0.422439
upperneck -10.8269 -1.30477 2.73426
head -4.27095 -0.750256 0.904137
rclavicle 1.96548e-014 2.41523e-014
rhumerus -34.2776 -0.87508 -86.7814
rradius 30.3565
rwrist -1.18516
rhand -22.0709 -8.03214
rfingers 7.12502
rthumb 4.34027 -37.9677
lclavicle 1.96548e-014 2.41523e-014
lhumerus -36.3162 0.0863152 86.3129
lradius 26.68
lwrist 22.1758
lhand -17.504 10.3934
lfingers 7.12502
lthumb 8.74896 40.1921
rfemur -36.9629 3.05711 28.7353
rtibia 51.3575
rfoot -28.5487 -7.52625
rtoes 11.0692
lfemur -57.3461 4.42428 -23.1987
ltibia 41.6338
lfoot -18.3888 2.5146
ltoes -15.2059
598
root 19.4493 16.1902 -5.0228 233.284 86.8681 213.051
lowerback 25.6306 -1.16293 3.62798
upperback 6.56674 -0.0366306 0.106252
thorax -6.9521 0.16207 -1.98146
lowerneck 4.09328 -1.27829 0.435531
upperneck -10.8553 -1.30064 2.74677
head -4.28058 -0.749188 0.906134
rclavicle 2.92959e-014 3.38182e-014
rhumerus -34.3044 -0.933929 -86.7763
rradius 30.3107
rwrist -1.08835
rhand -22.2091 -7.99016
rfingers 7.12502
rthumb 4.20688 -37.9284
lclavicle 2.92959e-014 3.38182e-014
lhumerus -36.3352 0.15528 86.2453
lradius 26.6393
lwrist 22.1263
lhand -17.4835 10.3831
lfingers 7.12502
lthumb 8.76874 40.1809
rfemur -36.0825 2.96966 29.0048
rtibia 51.0854
rfoot -28.9502 -7.53757
rtoes 10.8822
lfemur -57.4889 4.53557 -23.6061
ltibia 39.5087
lfoot -18.4747 3.05902
ltoes -15.4897
599
root 19.6013 16.1611 -5.02943 236.692 86.8582 216.546
lowerback 25.621 -1.12273 3.69403
upperback 6.58005 0.0323894 0.121534
thorax -6.92828 0.194989 -2.02367
lowerneck 4.08909 -1.2747 0.442383
upperneck -10.8941 -1.29189 2.7593
head -4.29391 -0.745545 0.909146
rclavicle -1.54307e-014 -2.05494e-014
rhumerus -34.3312 -0.997206 -86.7742
rradius 30.2913
rwrist -1.05038
rhand -22.2474 -8.00067
rfingers 7.12502
rthumb 4.16991 -37.9396
lclavicle -1.54307e-014 -2.05494e-014
lhumerus -36.3547 0.221815 86.1823
lradius 26.6135
lwrist 22.0956
lhand -17.4625 10.3756
lfingers 7.12502
lthumb 8.78904 40.1726
rfemur -35.2443 2.91899 29.2589
rtibia 50.8727
rfoot -29.3703 -7.56334
rtoes 10.6664
lfemur -57.6452 4.66643 -24.0464
ltibia 37.4276
lfoot -18.5085 3.62701
ltoes -15.9511
600
root 19.754 16.1482 -5.03612 240.109 86.8443 220.041
lowerback 25.6021 -1.08237 3.76159
upperback 6.59284 0.101076 0.13448
thorax -6.90025 0.22773 -2.06909
lowerneck 4.08297 -1.26689 0.444755
upperneck -10.9401 -1.27798 2.76702
head -4.30952 -0.738896 0.911146
rclavicle -5.96354e-016 -1.02623e-014
rhumerus -34.3594 -1.04705 -86.7826
rradius 30.2809
rwrist -1.01176
rhand -22.2804 -8.00926
rfingers 7.12502
rthumb 4.13802 -37.9488
lclavicle -5.96354e-016 -1.02623e-014
lhumerus -36.3689 0.287844 86.1248
lradius 26.589
lwrist 22.0826
lhand -17.4421 10.371
lfingers 7.12502
lthumb 8.80872 40.1672
rfemur -34.365 2.89936 29.4857
rtibia 50.5969
rfoot -29.7698 -7.60973
rtoes 10.389
lfemur -57.6852 4.82144 -24.4986
ltibia 35.3179
lfoot -18.5204 4.1797
ltoes -16.5031
601
root 19.9082 16.134 -5.04393 243.512 86.8279 223.515
lowerback 25.574 -1.04262 3.83134
upperback 6.60595 0.168595 0.144285
thorax -6.86713 0.259954 -2.11873
lowerneck 4.07956 -1.25583 0.440133
upperneck -10.994 -1.26034 2.77062
head -4.32854 -0.729939 0.912948
rclavicle -1.45361e-014 -2.75317e-014
rhumerus -34.3832 -1.0873 -86.7996
rradius 30.2707
rwrist -0.973709
rhand -22.3017 -8.00898
rfingers 7.12502
rthumb 4.11745 -37.9489
lclavicle -1.45361e-014 -2.75317e-014
lhumerus -36.3719 0.350203 86.0747
lradius 26.5548
lwrist 22.0846
lhand -17.4183 10.3579
lfingers 7.12502
lthumb 8.83169 40.1531
rfemur -33.4923 2.90971 29.6886
rtibia 50.3264
rfoot -30.1575 -7.66258
rtoes 10.0675
lfemur -57.6843 4.98408 -24.9562
ltibia 33.2681
lfoot -18.4968 4.70744
ltoes -17.0656
602
root 20.0641 16.1184 -5.05288 246.914 86.804 226.989
lowerback 25.5425 -1.00635 3.90632
upperback 6.62134 0.23274 0.1531
thorax -6.82982 0.290732 -2.1713
lowerneck 4.08201 -1.2422 0.433279
upperneck -11.0559 -1.24015 2.76443
head -4.35172 -0.719232 0.911893
rclavicle -8.59744e-015 -1.85615e-014
rhumerus -34.3994 -1.11068 -86.8257
rradius 30.2562
rwrist -0.940526
rhand -22.3053 -8.00099
rfingers 7.12502
rthumb 4.11396 -37.941
lclavicle -8.59744e-015 -1.85615e-014
lhumerus -36.3572 0.420034 86.0297
lradius 26.5014
lwrist 22.0912
lhand -17.3976 10.3427
lfingers 7.12502
lthumb 8.85168 40.137
rfemur -32.5982 2.94766 29.8731
rtibia 50.0163
rfoot -30.5077 -7.73065
rtoes 9.67808
lfemur -57.5966 5.14179 -25.3949
ltibia 31.2236
lfoot -18.4037 5.17791
ltoes -17.5242
603
root 20.2218 16.1013 -5.06279 250.256 86.7737 230.402
lowerback 25.5096 -0.972933 3.9841
upperback 6.63739 0.293552 0.159138
thorax -6.79107 0.319994 -2.2274
lowerneck 4.08787 -1.22736 0.422429
upperneck -11.116 -1.21905 2.75561
head -4.37497 -0.707821 0.910622
rclavicle 2.26242e-014 1.72073e-014
rhumerus -34.4084 -1.12753 -86.8599
rradius 30.2336
rwrist -0.90789
rhand -22.2959 -7.97725
rfingers 7.12502
rthumb 4.12302 -37.9171
lclavicle 2.26242e-014 1.72073e-014
lhumerus -36.3269 0.511071 85.9814
lradius 26.429
lwrist 22.0822
lhand -17.3858 10.3318
lfingers 7.12502
lthumb 8.86303 40.1256
rfemur -31.703 3.00763 30.0394
rtibia 49.7183
rfoot -30.848 -7.80896
rtoes 9.21009
lfemur -57.4652 5.27994 -25.7961
ltibia 29.293
lfoot -18.3004 5.5669
ltoes -17.8159
604
root 20.3813 16.0821 -5.07357 253.368 86.7335 233.586
lowerback 25.4749 -0.946326 4.0645
upperback 6.65432 0.346091 0.163515
thorax -6.75078 0.345432 -2.28421
lowerneck 4.10153 -1.21219 0.413091
upperneck -11.1753 -1.19807 2.74128
head -4.39955 -0.69637 0.907306
rclavicle 2.86126e-014 4.13472e-014
rhumerus -34.4085 -1.13759 -86.9016
rradius 30.2001
rwrist -0.87717
rhand -22.2642 -7.94918
rfingers 7.12502
rthumb 4.15362 -37.8884
lclavicle 2.86126e-014 4.13472e-014
lhumerus -36.2784 0.630911 85.9274
lradius 26.3397
lwrist 22.052
lhand -17.3827 10.318
lfingers 7.12502
lthumb 8.86606 40.1117
rfemur -30.8077 3.07631 30.1905
rtibia 49.4331
rfoot -31.1815 -7.89713
rtoes 8.69209
lfemur -57.2942 5.37864 -26.1446
ltibia 27.5
lfoot -18.178 5.86632
ltoes -17.9678
605
root 20.5427 16.0605 -5.08529 256.273 86.6841 236.565
lowerback 25.441 -0.924994 4.14871
upperback 6.6708 0.392673 0.16598
thorax -6.7116 0.368036 -2.34344
lowerneck 4.11944 -1.19955 0.401395
upperneck -11.2212 -1.18075 2.73246
head -4.42005 -0.686977 0.906323
rclavicle 1.29459e-014 5.77097e-015
rhumerus -34.4033 -1.14835 -86.9484
rradius 30.1561
rwrist -0.850323
rhand -22.2226 -7.92606
rfingers 7.12502
rthumb 4.19386 -37.8645
lclavicle 1.29459e-014 5.77097e-015
lhumerus -36.2197 0.77216 85.8706
lradius 26.2435
lwrist 22.0021
lhand -17.3963 10.3072
lfingers 7.12502
lthumb 8.8529 40.1015
rfemur -29.9073 3.14788 30.3305
rtibia 49.1584
rfoot -31.5122 -7.9927
rtoes 8.10863
lfemur -57.0833 5.42873 -26.4224
ltibia 25.8643
lfoot -18.0346 6.07831
ltoes -18.0514
606
root 20.7064 16.0367 -5.0978 258.96 86.6293 239.335
lowerback 25.4132 -0.907295 4.23377
upperback 6.68743 0.434883 0.164708
thorax -6.67539 0.388609 -2.40595
lowerneck 4.13927 -1.1902 0.394432
upperneck -11.2499 -1.16769 2.72884
head -4.43467 -0.6802 0.90627
rclavicle -3.85456e-015 -8.30547e-015
rhumerus -34.3988 -1.16322 -87.0008
rradius 30.1051
rwrist -0.8274
rhand -22.1879 -7.90563
rfingers 7.12502
rthumb 4.2273 -37.8434
lclavicle -3.85456e-015 -8.30547e-015
lhumerus -36.1533 0.920772 85.8146
lradius 26.145
lwrist 21.9377
lhand -17.4333 10.2977
lfingers 7.12502
lthumb 8.81721 40.0935
rfemur -28.9892 3.21722 30.4588
rtibia 48.8882
rfoot -31.8443 -8.09047
rtoes 7.4751
lfemur -56.8249 5.40689 -26.5983
ltibia 24.4033
lfoot -17.8846 6.18803
ltoes -18.0227
